Coordinates
version=1
nRows=11
nColumns=46
inDegrees=yes

Units are S.I. units (second, meters, Newtons, ...)
Angles are in degrees.

endheader
time	pelvis_tilt	pelvis_list	pelvis_rotation	pelvis_tx	pelvis_ty	pelvis_tz	bb_angle	bb_tx	bb_ty	bb_tz	hip_flexion_r	hip_adduction_r	hip_rotation_r	knee_angle_r	knee_angle_r_beta	ankle_angle_r	subtalar_angle_r	mtp_angle_r	crank_angle_r	hip_flexion_l	hip_adduction_l	hip_rotation_l	knee_angle_l	knee_angle_l_beta	ankle_angle_l	subtalar_angle_l	mtp_angle_l	crank_angle_l	lumbar_extension	lumbar_bending	lumbar_rotation	arm_flex_r	arm_add_r	arm_rot_r	elbow_flex_r	pro_sup_r	wrist_flex_r	wrist_dev_r	arm_flex_l	arm_add_l	arm_rot_l	elbow_flex_l	pro_sup_l	wrist_flex_l	wrist_dev_l
      5.00000000	    -19.66222782	     -6.38227235	      2.98459004	      0.37464247	      1.20314346	     -0.23244558	      0.00000000	      0.50000000	      0.00000000	      0.25000000	     54.89090413	     -7.56449623	     -7.63070605	     92.48295030	      1.61413198	     -7.59948506	     -0.90494049	      0.00000000	      0.00000000	     48.64517362	    -11.96093591	     -0.50770175	     49.01885428	      0.85554040	      8.03764986	      7.96570657	      0.00000000	      0.00000000	    -58.68913630	      3.17055189	     -2.32012636	     59.47717221	    -18.94885772	     35.20955756	     62.71896989	     47.59244681	      0.00000000	      0.00000000	     49.03238514	    -40.87646130	     31.64911439	     84.31632112	     50.33297436	      0.00000000	      0.00000000
      5.00500000	    -19.53507663	     -7.03946845	      2.94438381	      0.37509569	      1.20181172	     -0.23340829	      0.00000000	      0.50000000	      0.00000000	      0.25000000	     56.03528528	     -7.28225234	     -7.79514096	     94.37811064	      1.64720877	     -6.92063448	     -0.77437094	      0.00000000	      0.00000000	     47.27844678	    -12.50210683	     -0.42409663	     47.14103776	      0.82276632	      6.77017747	      8.31230561	      0.00000000	      0.00000000	    -58.48481434	      3.88246819	     -1.82624684	     59.43701237	    -18.81573710	     35.26819595	     62.71100203	     47.59040973	      0.00000000	      0.00000000	     48.61519034	    -40.80759660	     31.66698258	     84.19453405	     50.30526686	      0.00000000	      0.00000000
      5.01000000	    -19.17085549	     -7.10915588	      2.87123422	      0.37588312	      1.20084820	     -0.23468650	      0.00000000	      0.50000000	      0.00000000	      0.25000000	     57.03319930	     -7.51644593	     -7.41128596	     96.38568160	      1.68224750	     -5.71436621	      0.39855444	      0.00000000	      0.00000000	     45.40813927	    -12.55407181	     -0.79500709	     45.19043875	      0.78872195	      5.30582012	      8.18629381	      0.00000000	      0.00000000	    -58.44562414	      4.22010082	     -1.82312612	     59.53201780	    -18.67603405	     35.72909135	     62.23948767	     47.56428001	      0.00000000	      0.00000000	     47.89034707	    -40.21037806	     31.05189319	     83.43305264	     50.10748593	      0.00000000	      0.00000000
      5.01500000	    -18.88753210	     -7.43855325	      2.77784689	      0.37652691	      1.19975612	     -0.23571254	      0.00000000	      0.50000000	      0.00000000	      0.25000000	     58.05103547	     -7.47404463	     -7.30474718	     98.21846529	      1.71423561	     -4.70580797	      0.97321751	      0.00000000	      0.00000000	     43.79598733	    -12.86451508	     -0.96981296	     43.43198639	      0.75803116	      3.87408348	      8.21415877	      0.00000000	      0.00000000	    -58.32356196	      4.72414521	     -1.60166385	     59.83863661	    -18.55332861	     36.37772421	     61.60659299	     47.53335926	      0.00000000	      0.00000000	     47.06656632	    -39.63590118	     30.27313950	     82.75761951	     49.91490806	      0.00000000	      0.00000000
      5.02000000	    -18.71688504	     -7.89062238	      2.60892630	      0.37694456	      1.19861360	     -0.23664718	      0.00000000	      0.50000000	      0.00000000	      0.25000000	     59.21254189	     -7.21747797	     -7.23673715	     99.91695522	      1.74387985	     -3.82664737	      1.16521096	      0.00000000	      0.00000000	     42.41152559	    -13.31431214	     -1.03411461	     41.83120752	      0.73009230	      2.37215522	      8.33524382	      0.00000000	      0.00000000	    -58.16934901	      5.29969199	     -1.20519559	     59.95985176	    -18.55294259	     36.66033984	     61.35926208	     47.51917380	      0.00000000	      0.00000000	     46.33077865	    -39.35202193	     29.98889952	     82.40241110	     49.82501454	      0.00000000	      0.00000000
      5.02500000	    -18.59117410	     -8.37400395	      2.49292000	      0.37708694	      1.19747743	     -0.23742047	      0.00000000	      0.50000000	      0.00000000	      0.25000000	     60.42628946	     -7.00727121	     -7.32292032	    101.51393202	      1.77175235	     -3.03409429	      1.20576900	      0.00000000	      0.00000000	     41.17912911	    -13.76236630	     -0.97806452	     40.38202514	      0.70479930	      1.03463840	      8.65385053	      0.00000000	      0.00000000	    -58.03821960	      5.91542001	     -0.72111457	     60.07765650	    -18.52648314	     36.76422711	     61.28235433	     47.50716296	      0.00000000	      0.00000000	     45.89836939	    -39.23601384	     29.78082186	     82.15861630	     49.75340164	      0.00000000	      0.00000000
      5.03000000	    -18.12897453	     -8.45666633	      2.69624573	      0.37748079	      1.19704045	     -0.23930099	      0.00000000	      0.50000000	      0.00000000	      0.25000000	     61.23885410	     -7.46637521	     -7.17091064	    103.07518218	      1.79900131	     -2.03393178	      2.13655248	      0.00000000	      0.00000000	     39.47048571	    -13.61890883	     -1.00802162	     38.79329667	      0.67707075	     -0.69655545	      8.27975278	      0.00000000	      0.00000000	    -58.10612924	      6.65375498	     -1.22392802	     61.70318206	    -18.45972001	     39.99338553	     59.31062746	     47.56565216	      0.00000000	      0.00000000	     43.96968736	    -37.69798095	     26.13668331	     81.23846302	     49.29655075	      0.00000000	      0.00000000
      5.03500000	    -17.96369761	     -8.68633352	      2.56728075	      0.37794897	      1.19653515	     -0.24012780	      0.00000000	      0.50000000	      0.00000000	      0.25000000	     62.37703515	     -7.41499219	     -7.03830400	    104.42400546	      1.82254271	     -1.35519986	      2.29350343	      0.00000000	      0.00000000	     38.17282577	    -13.92949410	     -1.28344176	     37.48239893	      0.65419127	     -2.38578999	      8.49346871	      0.00000000	      0.00000000	    -58.07771577	      7.08553845	     -0.99798114	     61.76197622	    -18.46520543	     40.02034658	     59.29309722	     47.55310459	      0.00000000	      0.00000000	     43.37014237	    -37.59854489	     25.98733430	     81.05514432	     49.24339106	      0.00000000	      0.00000000
      5.04000000	    -17.89572190	     -8.94541914	      2.30011390	      0.37839062	      1.19612219	     -0.24100805	      0.00000000	      0.50000000	      0.00000000	      0.25000000	     63.61031178	     -7.21003032	     -6.88955594	    105.63323825	      1.84364781	     -0.66527220	      2.34028443	      0.00000000	      0.00000000	     36.98462765	    -14.31128327	     -1.59725420	     36.27850971	      0.63317944	     -3.91384536	      8.80619138	      0.00000000	      0.00000000	    -58.03710097	      7.46352667	     -0.63710968	     62.00670774	    -18.50797860	     40.10430286	     59.26448286	     47.55295831	      0.00000000	      0.00000000	     42.90618778	    -37.41957738	     25.84519072	     80.85858495	     49.19956498	      0.00000000	      0.00000000
      5.04500000	    -17.54892684	     -8.84704134	      1.88816305	      0.37934805	      1.19629814	     -0.24145671	      0.00000000	      0.50000000	      0.00000000	      0.25000000	     64.56475267	     -7.09093366	     -6.38492339	    106.77397961	      1.86355750	     -0.10323690	      2.91102911	      0.00000000	      0.00000000	     35.31731770	    -14.54729122	     -2.47524349	     35.05839691	      0.61188446	     -5.56204600	      8.78875206	      0.00000000	      0.00000000	    -58.22360979	      7.47443598	     -0.60776863	     62.79255897	    -18.75215472	     41.93942600	     58.64736186	     47.67452228	      0.00000000	      0.00000000	     41.74687335	    -36.08974800	     23.42390588	     80.23053612	     48.90998954	      0.00000000	      0.00000000
      5.05000000	    -17.58130415	     -9.02794630	      1.23535393	      0.37976880	      1.19639019	     -0.24187156	      0.00000000	      0.50000000	      0.00000000	      0.25000000	     65.91170762	     -6.68790902	     -6.17917818	    107.64229234	      1.87871242	      0.24157569	      2.77701220	      0.00000000	      0.00000000	     34.17100617	    -15.07221463	     -3.17459259	     34.03201510	      0.59397071	     -7.06123834	      9.06729560	      0.00000000	      0.00000000	    -58.20002968	      7.50208252	     -0.11741247	     63.05862683	    -18.83535940	     42.18558987	     58.60617265	     47.69468972	      0.00000000	      0.00000000	     41.21048802	    -35.84754888	     23.22698627	     80.11781633	     48.88580718	      0.00000000	      0.00000000
